<svg xmlns="http://www.w3.org/2000/svg" viewBox="0 0 426.03 108.78"><defs><style>.cls-1{fill:#8e8d8e;}.cls-2{fill:#8bb79b;}</style></defs><title>Asset 1</title><g id="Layer_2" data-name="Layer 2"><g id="Layer_3" data-name="Layer 3"><path class="cls-1" d="M0,3.19A2.22,2.22,0,0,1,2.25.94H7.7A2.28,2.28,0,0,1,10,3.19v26L36.45,1.88A2.42,2.42,0,0,1,38.24.94h7A2,2,0,0,1,46.6,4.32L19.45,31.94,48.2,63.6a2,2,0,0,1-1.7,3.1H39a2,2,0,0,1-1.69-.65L10,35.23V64.45A2.28,2.28,0,0,1,7.7,66.7H2.25A2.22,2.22,0,0,1,0,64.45Z"/><path class="cls-1" d="M55.52,2.72A1.78,1.78,0,0,1,57.31.94H94.89a1.78,1.78,0,0,1,1.78,1.78V8a1.78,1.78,0,0,1-1.78,1.78H65.2V28.94H90.28a1.85,1.85,0,0,1,1.79,1.78V36a1.79,1.79,0,0,1-1.79,1.79H65.2V58H94.89a1.78,1.78,0,0,1,1.78,1.78v5.17a1.78,1.78,0,0,1-1.78,1.78H57.31a1.78,1.78,0,0,1-1.79-1.78Z"/><path class="cls-1" d="M98.36,3.38A1.66,1.66,0,0,1,100,.94h6.66a1.84,1.84,0,0,1,1.6,1l20.67,46.51h.56L150.12,2a1.74,1.74,0,0,1,1.6-1h6.67A1.66,1.66,0,0,1,160,3.38L131.15,66.61a1.81,1.81,0,0,1-1.6,1h-.94a1.91,1.91,0,0,1-1.6-1Z"/><path class="cls-1" d="M165.71,2.72A1.85,1.85,0,0,1,167.5.94h6.2a1.85,1.85,0,0,1,1.79,1.78v62.2a1.85,1.85,0,0,1-1.79,1.78h-6.2a1.85,1.85,0,0,1-1.79-1.78Z"/><path class="cls-1" d="M190,1.69A1.77,1.77,0,0,1,191.74,0h2.34l40.78,47.16H235V2.72A1.78,1.78,0,0,1,236.74.94h6a1.85,1.85,0,0,1,1.79,1.78V66a1.77,1.77,0,0,1-1.79,1.69h-2.44L199.53,19.17h-.09V64.92a1.78,1.78,0,0,1-1.79,1.78h-5.91A1.85,1.85,0,0,1,190,64.92Z"/><path class="cls-1" d="M275.91,2.72A1.78,1.78,0,0,1,277.69.94h21.05c11.36,0,19.54,7.52,19.54,17.38,0,7.23-5.36,12.4-9.77,14.94,5,2.06,11.74,6.67,11.74,15.31,0,10.52-8.64,18.13-20.48,18.13H277.69a1.78,1.78,0,0,1-1.78-1.78Zm23.77,55.34a10,10,0,0,0,10.14-10.24c0-5.73-5.45-9.86-11.55-9.86H285.4v20.1ZM298.17,29.5c6,0,9.68-4.42,9.68-10s-3.66-9.68-9.68-9.68H285.49V29.5Z"/><path class="cls-1" d="M321.75,64.26,350.59,1a2.22,2.22,0,0,1,1.6-1h.94a2.22,2.22,0,0,1,1.6,1l28.65,63.23a1.66,1.66,0,0,1-1.6,2.44h-5.91a2.2,2.2,0,0,1-2.17-1.41l-5.82-12.87H337.16c-1.88,4.32-3.85,8.55-5.73,12.87a2.36,2.36,0,0,1-2.16,1.41h-5.92A1.66,1.66,0,0,1,321.75,64.26Zm42.56-19.92L352.75,18.6h-.47L340.82,44.34Z"/><path class="cls-1" d="M389,2.72A1.78,1.78,0,0,1,390.8.94H397a1.84,1.84,0,0,1,1.78,1.78V58h25.46A1.78,1.78,0,0,1,426,59.75v5.17a1.78,1.78,0,0,1-1.79,1.78H390.8A1.78,1.78,0,0,1,389,64.92Z"/><path class="cls-2" d="M72.3,86.29a.47.47,0,0,1,.49-.49h.58a.47.47,0,0,1,.49.49v10L84.86,86a.74.74,0,0,1,.65-.23h.9c.36,0,.39.36.2.55L75.34,96.81,87,107.91c.2.16.13.55-.29.55h-1a.87.87,0,0,1-.72-.33L73.86,97.39V108c0,.32-.23.42-.49.42h-.65a.39.39,0,0,1-.42-.42Z"/><path class="cls-2" d="M94.5,86.22a.43.43,0,0,1,.42-.42h.71a.43.43,0,0,1,.42.42V108a.44.44,0,0,1-.45.42h-.68a.43.43,0,0,1-.42-.42Z"/><path class="cls-2" d="M106.15,85.9a.44.44,0,0,1,.48-.42h.55l15.54,20.23h0V86.22a.44.44,0,0,1,.42-.42h.65a.43.43,0,0,1,.42.42v22.14c0,.29-.26.42-.52.42h-.42s-.29-.1-15.66-20.42h0V108a.43.43,0,0,1-.42.42h-.61a.43.43,0,0,1-.42-.42Z"/><path class="cls-2" d="M134.33,86.22a.44.44,0,0,1,.42-.42h13a.43.43,0,0,1,.42.42v.55a.42.42,0,0,1-.42.42H135.89v8.94h10.26a.43.43,0,0,1,.42.42v.55a.44.44,0,0,1-.42.42H135.89v9.58h11.84a.42.42,0,0,1,.42.42V108a.43.43,0,0,1-.42.42h-13a.44.44,0,0,1-.42-.42Z"/><path class="cls-2" d="M155.56,105.45l.29-.39c.23-.26.45-.36.71-.13a9.45,9.45,0,0,0,6,2.49c2.95,0,5.44-2,5.44-4.34,0-2.88-2.37-4.17-6.28-5.5s-6.25-2.65-6.25-6.37c0-2.43,1.94-5.73,7-5.73A10.62,10.62,0,0,1,168,87.13a.46.46,0,0,1,.13.68,3.19,3.19,0,0,0-.26.42.47.47,0,0,1-.71.16,9.58,9.58,0,0,0-4.76-1.52c-4,0-5.47,2.46-5.47,4.3,0,2.75,2.1,4,5.37,5,4.44,1.52,7.25,3.07,7.25,6.83,0,3.24-3.33,5.76-7,5.76a10.59,10.59,0,0,1-6.86-2.65C155.46,106,155.3,105.8,155.56,105.45Z"/><path class="cls-2" d="M177.73,86.22a.43.43,0,0,1,.42-.42h.71a.44.44,0,0,1,.42.42V108a.44.44,0,0,1-.45.42h-.68a.43.43,0,0,1-.42-.42Z"/><path class="cls-2" d="M192.81,87.19h-6.19c-.32,0-.42-.19-.42-.48v-.49a.41.41,0,0,1,.42-.42h13.92a.41.41,0,0,1,.42.42v.55a.4.4,0,0,1-.42.42h-6.21V108a.47.47,0,0,1-.52.42h-.58a.43.43,0,0,1-.42-.42Z"/><path class="cls-2" d="M207.88,86.22a.44.44,0,0,1,.42-.42H209a.41.41,0,0,1,.42.42v9.94h14.54V86.22a.43.43,0,0,1,.42-.42H225a.42.42,0,0,1,.42.42V108a.42.42,0,0,1-.42.42h-.68a.43.43,0,0,1-.42-.42V97.52H209.4V108a.41.41,0,0,1-.42.42h-.68a.44.44,0,0,1-.42-.42Z"/><path class="cls-2" d="M235.55,86.22a.43.43,0,0,1,.42-.42h13a.44.44,0,0,1,.42.42v.55a.43.43,0,0,1-.42.42H237.1v8.94h10.26a.42.42,0,0,1,.42.42v.55a.43.43,0,0,1-.42.42H237.1v9.58H249a.43.43,0,0,1,.42.42V108a.44.44,0,0,1-.42.42H236a.43.43,0,0,1-.42-.42Z"/><path class="cls-2" d="M258.14,86.22a.41.41,0,0,1,.42-.42h8a6.94,6.94,0,0,1,1.88,13.69l4.72,8.38c.17.26.1.59-.22.59h-1a.47.47,0,0,1-.46-.3l-4.69-8.47c-.42,0-.78,0-1.2,0h-5.95V108a.47.47,0,0,1-.52.42h-.58a.43.43,0,0,1-.42-.42Zm8.38,12.14a5.66,5.66,0,0,0,5.73-5.63,5.59,5.59,0,0,0-5.76-5.44h-6.8V98.36Z"/><path class="cls-2" d="M279.17,108.07l10-22.53a.43.43,0,0,1,.38-.22h.1a.41.41,0,0,1,.42.22l9.87,22.53c.07.19.07.39-.29.39h-.84a.52.52,0,0,1-.45-.3l-2.62-6H283.34l-2.59,6a.52.52,0,0,1-.45.3h-.91C279.17,108.46,279.07,108.33,279.17,108.07Zm16-7.12-5.54-13h-.06l-5.63,13Z"/><path class="cls-2" d="M306.77,86.22a.43.43,0,0,1,.42-.42h7a7.3,7.3,0,0,1,0,14.6h-5.89V108c0,.22-.19.42-.52.42h-.58a.43.43,0,0,1-.42-.42Zm7.31,12.69A5.9,5.9,0,0,0,319.94,93a5.81,5.81,0,0,0-5.89-5.7h-5.76V98.91Z"/><path class="cls-2" d="M329.23,86.22a.43.43,0,0,1,.42-.42h.71a.43.43,0,0,1,.42.42V108a.44.44,0,0,1-.45.42h-.68a.43.43,0,0,1-.42-.42Z"/><path class="cls-2" d="M340.88,86.22a.43.43,0,0,1,.42-.42h13a.44.44,0,0,1,.43.42v.55a.43.43,0,0,1-.43.42H342.43v8.94h10.26a.42.42,0,0,1,.42.42v.55a.43.43,0,0,1-.42.42H342.43v9.58h11.84a.43.43,0,0,1,.43.42V108a.44.44,0,0,1-.43.42h-13a.43.43,0,0,1-.42-.42Z"/></g></g></svg>