<svg xmlns="http://www.w3.org/2000/svg" viewBox="0 0 426.03 311.65"><defs><style>.cls-1{fill:#8bb79b;}.cls-2{fill:#8e8d8e;}</style></defs><title>Asset 3</title><g id="Layer_2" data-name="Layer 2"><g id="Layer_3" data-name="Layer 3"><path class="cls-1" d="M277.23,160.36s-46-15.19-69.75-39.5a103.83,103.83,0,0,0,5.94-41.42A94.79,94.79,0,0,0,211,63c22.52-17,59-23.52,59-23.52s-34.22,4.82-60.45,18.08C195.27,12,149.71,0,149.71,0s38.6,14.91,48.15,64.4C187,72.1,179.41,81.88,180,94.16c.45,10.12,6.39,19.22,15.12,27.2-10.61,38-34.9,63.19-34.9,63.19s28.88-20.86,44.18-55.79C233.18,149.1,277.23,160.36,277.23,160.36ZM193.61,93.25a30.49,30.49,0,0,1,5.74-18.59c.12,1.27.24,2.54.33,3.84a123.6,123.6,0,0,1-1.65,30A33.55,33.55,0,0,1,193.61,93.25Z"/><path class="cls-1" d="M212.54,51.34c4.08,1,8.72-3.27,10.34-9.62s-.37-12.36-4.46-13.41-8.72,3.27-10.34,9.62S208.45,50.29,212.54,51.34Z"/><path class="cls-2" d="M0,206.06a2.22,2.22,0,0,1,2.25-2.25H7.7A2.28,2.28,0,0,1,10,206.06v26l26.49-27.33a2.42,2.42,0,0,1,1.79-.94h7a2,2,0,0,1,1.32,3.38L19.45,234.81,48.2,266.47a2,2,0,0,1-1.7,3.1H39a2,2,0,0,1-1.69-.66L10,238.1v29.21a2.28,2.28,0,0,1-2.26,2.26H2.25A2.22,2.22,0,0,1,0,267.31Z"/><path class="cls-2" d="M55.52,205.59a1.78,1.78,0,0,1,1.79-1.78H94.89a1.78,1.78,0,0,1,1.78,1.78v5.26a1.79,1.79,0,0,1-1.78,1.79H65.2V231.8H90.28a1.86,1.86,0,0,1,1.79,1.79v5.26a1.79,1.79,0,0,1-1.79,1.78H65.2v20.2H94.89a1.79,1.79,0,0,1,1.78,1.79v5.16a1.79,1.79,0,0,1-1.78,1.79H57.31a1.79,1.79,0,0,1-1.79-1.79Z"/><path class="cls-2" d="M98.36,206.25a1.66,1.66,0,0,1,1.6-2.44h6.66a1.84,1.84,0,0,1,1.6,1l20.67,46.5h.56l20.67-46.5a1.74,1.74,0,0,1,1.6-1h6.67a1.66,1.66,0,0,1,1.6,2.44l-28.84,63.23a1.81,1.81,0,0,1-1.6,1h-.94a1.91,1.91,0,0,1-1.6-1Z"/><path class="cls-2" d="M165.71,205.59a1.85,1.85,0,0,1,1.79-1.78h6.2a1.85,1.85,0,0,1,1.79,1.78v62.19a1.86,1.86,0,0,1-1.79,1.79h-6.2a1.86,1.86,0,0,1-1.79-1.79Z"/><path class="cls-2" d="M190,204.56a1.77,1.77,0,0,1,1.79-1.69h2.34L234.86,250H235V205.59a1.78,1.78,0,0,1,1.79-1.78h6a1.85,1.85,0,0,1,1.79,1.78v63.23a1.77,1.77,0,0,1-1.79,1.69h-2.44L199.53,222h-.09v45.75a1.79,1.79,0,0,1-1.79,1.79h-5.91a1.86,1.86,0,0,1-1.79-1.79Z"/><path class="cls-2" d="M275.91,205.59a1.78,1.78,0,0,1,1.78-1.78h21.05c11.36,0,19.54,7.51,19.54,17.38,0,7.23-5.36,12.4-9.77,14.93,5,2.07,11.74,6.67,11.74,15.32,0,10.52-8.64,18.13-20.48,18.13H277.69a1.79,1.79,0,0,1-1.78-1.79Zm23.77,55.34a10,10,0,0,0,10.14-10.24c0-5.73-5.45-9.87-11.55-9.87H285.4v20.11Zm-1.51-28.56c6,0,9.68-4.42,9.68-10.06s-3.66-9.67-9.68-9.67H285.49v19.73Z"/><path class="cls-2" d="M321.75,267.13l28.84-63.23a2.22,2.22,0,0,1,1.6-1h.94a2.22,2.22,0,0,1,1.6,1l28.65,63.23a1.66,1.66,0,0,1-1.6,2.44h-5.91a2.2,2.2,0,0,1-2.17-1.41l-5.82-12.87H337.16c-1.88,4.32-3.85,8.55-5.73,12.87a2.36,2.36,0,0,1-2.16,1.41h-5.92A1.66,1.66,0,0,1,321.75,267.13Zm42.56-19.92-11.56-25.74h-.47l-11.46,25.74Z"/><path class="cls-2" d="M389,205.59a1.78,1.78,0,0,1,1.79-1.78H397a1.84,1.84,0,0,1,1.78,1.78v55.24h25.46a1.79,1.79,0,0,1,1.79,1.79v5.16a1.79,1.79,0,0,1-1.79,1.79H390.8a1.79,1.79,0,0,1-1.79-1.79Z"/><path class="cls-1" d="M72.3,289.15a.46.46,0,0,1,.49-.48h.58a.46.46,0,0,1,.49.48v10l11-10.26a.76.76,0,0,1,.65-.22h.9c.36,0,.39.35.2.55L75.34,299.67,87,310.77c.2.16.13.55-.29.55h-1a.86.86,0,0,1-.72-.32L73.86,300.25V310.9c0,.33-.23.42-.49.42h-.65a.39.39,0,0,1-.42-.42Z"/><path class="cls-1" d="M94.5,289.09a.42.42,0,0,1,.42-.42h.71a.42.42,0,0,1,.42.42V310.9a.43.43,0,0,1-.45.42h-.68a.42.42,0,0,1-.42-.42Z"/><path class="cls-1" d="M106.15,288.76a.45.45,0,0,1,.48-.42h.55l15.54,20.23h0V289.09a.43.43,0,0,1,.42-.42h.65a.42.42,0,0,1,.42.42v22.14c0,.29-.26.42-.52.42h-.42s-.29-.1-15.66-20.43h0V310.9a.42.42,0,0,1-.42.42h-.61a.42.42,0,0,1-.42-.42Z"/><path class="cls-1" d="M134.33,289.09a.43.43,0,0,1,.42-.42h13a.42.42,0,0,1,.42.42v.55a.42.42,0,0,1-.42.42H135.89V299h10.26a.44.44,0,0,1,.42.42V300a.43.43,0,0,1-.42.42H135.89V310h11.84a.43.43,0,0,1,.42.42v.52a.42.42,0,0,1-.42.42h-13a.43.43,0,0,1-.42-.42Z"/><path class="cls-1" d="M155.56,308.31l.29-.39c.23-.25.45-.35.71-.13a9.38,9.38,0,0,0,6,2.5c2.95,0,5.44-2,5.44-4.34,0-2.88-2.37-4.18-6.28-5.5s-6.25-2.66-6.25-6.38c0-2.42,1.94-5.73,7-5.73A10.62,10.62,0,0,1,168,290a.46.46,0,0,1,.13.68,4,4,0,0,0-.26.42.47.47,0,0,1-.71.17,9.47,9.47,0,0,0-4.76-1.52c-4,0-5.47,2.46-5.47,4.3,0,2.75,2.1,3.95,5.37,5,4.44,1.52,7.25,3.07,7.25,6.83,0,3.23-3.33,5.76-7,5.76a10.52,10.52,0,0,1-6.86-2.66C155.46,308.83,155.3,308.67,155.56,308.31Z"/><path class="cls-1" d="M177.73,289.09a.42.42,0,0,1,.42-.42h.71a.43.43,0,0,1,.42.42V310.9a.43.43,0,0,1-.45.42h-.68a.42.42,0,0,1-.42-.42Z"/><path class="cls-1" d="M192.81,290.06h-6.19c-.32,0-.42-.19-.42-.49v-.48a.41.41,0,0,1,.42-.42h13.92a.4.4,0,0,1,.42.42v.55a.4.4,0,0,1-.42.42h-6.21V310.9c0,.23-.2.42-.52.42h-.58a.42.42,0,0,1-.42-.42Z"/><path class="cls-1" d="M207.88,289.09a.43.43,0,0,1,.42-.42H209a.4.4,0,0,1,.42.42V299h14.54v-9.93a.42.42,0,0,1,.42-.42H225a.41.41,0,0,1,.42.42V310.9a.41.41,0,0,1-.42.42h-.68a.42.42,0,0,1-.42-.42V300.38H209.4V310.9a.4.4,0,0,1-.42.42h-.68a.43.43,0,0,1-.42-.42Z"/><path class="cls-1" d="M235.55,289.09a.42.42,0,0,1,.42-.42h13a.43.43,0,0,1,.42.42v.55a.43.43,0,0,1-.42.42H237.1V299h10.26a.43.43,0,0,1,.42.42V300a.42.42,0,0,1-.42.42H237.1V310H249a.44.44,0,0,1,.42.42v.52a.43.43,0,0,1-.42.42H236a.42.42,0,0,1-.42-.42Z"/><path class="cls-1" d="M258.14,289.09a.4.4,0,0,1,.42-.42h8a7,7,0,0,1,7.22,6.92,7.1,7.1,0,0,1-5.34,6.77l4.72,8.38c.17.26.1.58-.22.58h-1a.46.46,0,0,1-.46-.29l-4.69-8.48c-.42,0-.78,0-1.2,0h-5.95v8.32c0,.23-.2.42-.52.42h-.58a.42.42,0,0,1-.42-.42Zm8.38,12.13a5.66,5.66,0,0,0,5.73-5.63,5.59,5.59,0,0,0-5.76-5.43h-6.8v11.06Z"/><path class="cls-1" d="M279.17,310.93l10-22.52a.43.43,0,0,1,.38-.23h.1a.4.4,0,0,1,.42.23l9.87,22.52c.07.2.07.39-.29.39h-.84a.51.51,0,0,1-.45-.29l-2.62-5.95H283.34L280.75,311a.51.51,0,0,1-.45.29h-.91C279.17,311.32,279.07,311.19,279.17,310.93Zm16-7.12-5.54-13h-.06l-5.63,13Z"/><path class="cls-1" d="M306.77,289.09a.42.42,0,0,1,.42-.42h7a7.3,7.3,0,1,1,0,14.59h-5.89v7.64c0,.23-.19.42-.52.42h-.58a.42.42,0,0,1-.42-.42Zm7.31,12.68a5.9,5.9,0,0,0,5.86-5.89,5.8,5.8,0,0,0-5.89-5.69h-5.76v11.58Z"/><path class="cls-1" d="M329.23,289.09a.42.42,0,0,1,.42-.42h.71a.42.42,0,0,1,.42.42V310.9a.43.43,0,0,1-.45.42h-.68a.42.42,0,0,1-.42-.42Z"/><path class="cls-1" d="M340.88,289.09a.42.42,0,0,1,.42-.42h13a.43.43,0,0,1,.43.42v.55a.43.43,0,0,1-.43.42H342.43V299h10.26a.43.43,0,0,1,.42.42V300a.42.42,0,0,1-.42.42H342.43V310h11.84a.44.44,0,0,1,.43.42v.52a.43.43,0,0,1-.43.42h-13a.42.42,0,0,1-.42-.42Z"/></g></g></svg>