<svg xmlns="http://www.w3.org/2000/svg" viewBox="0 0 127.52 184.55"><defs><style>.cls-1{fill:#8bb79b;}</style></defs><title>Asset 2</title><g id="Layer_2" data-name="Layer 2"><g id="Layer_3" data-name="Layer 3"><path class="cls-1" d="M127.52,160.36s-46-15.19-69.75-39.5a103.65,103.65,0,0,0,5.94-41.42A95.78,95.78,0,0,0,61.26,63C83.78,46,120.2,39.43,120.2,39.43S86,44.25,59.75,57.51C45.57,12,0,0,0,0S38.6,14.91,48.15,64.4C37.24,72.1,29.7,81.88,30.25,94.16c.45,10.12,6.39,19.22,15.13,27.2-10.62,38-34.9,63.19-34.9,63.19s28.87-20.86,44.17-55.79C83.47,149.1,127.52,160.36,127.52,160.36ZM43.9,93.25a30.56,30.56,0,0,1,5.74-18.59c.13,1.27.24,2.54.33,3.84a123.6,123.6,0,0,1-1.65,30A33.55,33.55,0,0,1,43.9,93.25Z"/><path class="cls-1" d="M62.83,51.34c4.09,1,8.72-3.27,10.34-9.62s-.37-12.36-4.46-13.41S60,31.58,58.37,37.93,58.74,50.29,62.83,51.34Z"/></g></g></svg>